<?xml version="1.0" standalone="no"?>
<!DOCTYPE svg PUBLIC "-//W3C//DTD SVG 20010904//EN"
 "http://www.w3.org/TR/2001/REC-SVG-20010904/DTD/svg10.dtd">
<svg version="1.0" xmlns="http://www.w3.org/2000/svg"
 width="1024.000000pt" height="1024.000000pt" viewBox="0 0 1024.000000 1024.000000"
 preserveAspectRatio="xMidYMid meet">
<metadata>
Created by potrace 1.11, written by Peter Selinger 2001-2013
</metadata>
<g transform="translate(0.000000,1024.000000) scale(0.100000,-0.100000)"
fill="#000000" stroke="none">
<path d="M6975 9095 c-90 -23 -188 -70 -233 -112 -16 -15 -33 -16 -87 -3 -34
8 -138 27 -245 45 -66 11 -172 25 -235 30 -38 3 -90 8 -115 10 -58 5 -411 6
-470 1 -25 -3 -81 -7 -125 -11 -44 -4 -91 -8 -105 -10 -14 -1 -50 -6 -80 -9
-30 -4 -62 -9 -70 -11 -8 -2 -33 -7 -55 -10 -145 -20 -390 -81 -584 -145 -274
-90 -590 -236 -811 -374 -303 -189 -503 -348 -745 -591 -145 -145 -171 -174
-291 -325 -205 -256 -379 -545 -529 -877 -16 -35 -33 -63 -39 -64 -152 -8
-198 -19 -306 -75 -182 -95 -301 -287 -309 -501 -8 -222 127 -444 330 -541
107 -51 160 -62 284 -58 159 6 275 56 389 169 239 235 233 610 -12 844 l-55
52 16 38 c28 72 110 237 159 322 26 46 48 85 48 87 0 2 25 43 56 91 468 724
1148 1247 1963 1507 122 40 365 101 434 111 23 3 65 10 92 15 28 5 77 12 110
16 33 3 69 8 80 10 120 23 616 22 770 -1 17 -3 53 -7 80 -10 28 -3 57 -8 65
-10 8 -2 35 -7 60 -10 110 -15 115 -18 112 -56 -11 -104 -6 -227 12 -279 57
-176 156 -291 312 -366 39 -19 99 -40 135 -46 35 -6 68 -14 72 -18 8 -7 11
-525 3 -538 -2 -4 -19 -9 -37 -10 -89 -7 -239 -78 -317 -151 l-34 -32 -116 40
c-109 37 -260 79 -307 86 -11 1 -36 5 -55 9 -259 46 -587 39 -835 -18 -120
-27 -167 -40 -247 -67 -206 -71 -468 -203 -593 -301 -5 -5 -28 -22 -50 -39
-22 -17 -58 -45 -80 -62 -59 -46 -274 -264 -323 -327 -177 -229 -336 -531
-398 -756 -46 -167 -53 -200 -79 -384 -13 -93 -14 -473 -2 -530 4 -14 9 -47
12 -74 3 -27 13 -80 21 -118 9 -39 17 -75 18 -82 12 -56 60 -210 81 -261 53
-127 73 -171 116 -253 212 -404 558 -743 975 -957 205 -105 485 -194 694 -221
30 -4 66 -9 80 -11 14 -2 104 -6 200 -7 195 -4 383 13 505 45 22 6 48 13 57
14 67 13 203 57 300 96 l48 20 50 -40 c69 -54 161 -96 248 -111 l72 -13 0 -99
c1 -54 1 -154 1 -223 0 -69 0 -147 -1 -173 l0 -48 -67 -13 c-228 -43 -420
-229 -467 -451 -16 -76 -14 -206 4 -268 7 -23 11 -44 9 -46 -2 -2 -22 -7 -44
-10 -23 -4 -52 -9 -65 -11 -25 -5 -127 -20 -205 -30 -215 -27 -603 -27 -835 1
-51 6 -244 37 -295 48 -432 91 -783 229 -1173 461 -114 67 -310 209 -442 319
-152 127 -392 374 -500 516 -19 25 -37 47 -40 50 -8 8 -51 67 -104 142 -117
168 -260 427 -358 648 l-15 35 73 68 c60 56 80 84 117 160 56 113 67 165 63
287 -10 312 -264 561 -576 563 -269 3 -487 -156 -575 -418 -42 -127 -26 -297
41 -435 88 -180 304 -320 496 -322 49 0 50 0 69 -46 121 -282 252 -519 423
-762 58 -83 186 -246 255 -325 88 -100 366 -368 461 -444 58 -46 114 -91 126
-100 36 -29 87 -64 204 -142 530 -351 1151 -572 1785 -634 324 -33 731 -20
1015 30 14 3 41 7 60 10 19 3 84 17 143 30 l109 24 39 -25 c123 -77 299 -107
439 -74 447 105 611 645 297 977 -28 29 -69 65 -93 80 l-44 28 0 350 1 350 40
25 c95 58 192 187 235 311 15 41 19 82 19 174 -1 103 -4 130 -26 191 -66 180
-210 318 -394 374 -122 37 -299 24 -405 -30 -19 -9 -51 -25 -70 -35 -54 -28
-171 -153 -207 -220 -17 -33 -39 -85 -48 -115 -20 -68 -28 -214 -14 -265 8
-29 8 -40 -3 -46 -24 -16 -202 -69 -293 -88 -147 -31 -161 -33 -380 -36 -182
-2 -227 0 -340 20 -71 12 -157 30 -190 40 -479 136 -875 435 -1137 857 -118
190 -223 468 -252 663 -4 23 -8 52 -11 65 -23 118 -23 375 -1 550 32 249 151
558 299 780 111 166 279 349 412 450 33 25 66 50 73 57 23 22 187 120 268 161
73 37 275 117 320 127 10 2 57 13 104 25 149 36 274 48 460 45 96 -2 195 -6
220 -10 129 -19 323 -67 407 -100 l38 -15 0 -108 c0 -77 5 -122 18 -162 70
-207 197 -335 402 -405 58 -20 200 -28 265 -15 25 5 56 12 70 14 64 13 177 83
246 152 256 254 225 673 -65 884 l-61 45 0 346 0 346 42 29 c118 81 199 195
241 340 24 83 20 239 -9 324 -3 8 -5 16 -4 18 0 1 -16 35 -37 75 -47 90 -154
199 -240 245 -122 65 -287 88 -408 57z m195 -318 c0 2 18 -6 40 -17 129 -66
186 -208 134 -335 -81 -200 -344 -225 -462 -44 -51 77 -57 159 -19 243 50 109
157 172 265 156 23 -4 42 -5 42 -3z m47 -1743 c196 -93 194 -371 -3 -469 -126
-62 -287 -5 -351 124 -25 51 -25 172 1 225 49 99 161 161 266 148 19 -2 58
-15 87 -28z m-5006 -735 c112 -38 191 -158 182 -274 -5 -57 -48 -139 -91 -175
-139 -114 -330 -70 -415 96 -11 22 -15 54 -14 111 2 73 5 85 36 130 35 52 82
90 135 110 41 15 124 16 167 2z m36 -1848 c48 -24 107 -88 129 -138 25 -59 21
-150 -9 -209 -101 -198 -370 -200 -470 -4 -26 49 -28 63 -25 130 5 81 26 127
85 183 71 66 202 84 290 38z m4966 -751 c126 -65 180 -195 136 -329 -15 -44
-82 -117 -134 -144 -56 -30 -173 -30 -230 0 -217 114 -182 426 55 493 44 13
129 3 173 -20z m-3 -1718 c165 -76 205 -296 77 -422 -193 -190 -512 0 -437
260 43 149 218 227 360 162z"/>
</g>
</svg>
